<svg width="1623" height="623" viewBox="0 0 1623 623" fill="none" xmlns="http://www.w3.org/2000/svg">
<path d="M436.5 474L165.5 395L336.531 174.228M436.5 474L894.675 451.823M436.5 474L336.531 174.228M436.5 474L481.713 280.747M436.5 474L764.549 157.013M436.5 474L386 512.5M436.5 474L454.5 520M879 561.5L894.675 451.823M894.675 451.823L764.549 157.013M894.675 451.823L1045.23 121.506M894.675 451.823L1177.51 258.152M894.675 451.823L1458.2 292.582M336.531 174.228L111.5 192.5L310.721 84.924M310.721 84.924L481.713 280.747M310.721 84.924L764.549 157.013M310.721 84.924L235 45.1139L1 103.215M481.713 280.747L764.549 157.013M764.549 157.013L1045.23 121.506M1342.5 594L1458.2 292.582M1111.5 575.5L1458.2 292.582M1458.2 292.582L1622 147M1458.2 292.582L1575.42 379.734M1458.2 292.582L1388.29 45.1139M1045.23 121.506L1177.51 258.152M1045.23 121.506L1388.29 45.1139M1177.51 258.152L1388.29 45.1139M1388.29 45.1139L1598 1" stroke="white" stroke-opacity="0.16"/>
<circle cx="482.5" cy="280.5" r="2.5" fill="white"/>
<circle cx="336.5" cy="173.5" r="2.5" fill="white"/>
<circle cx="310.5" cy="84.5" r="2.5" fill="white"/>
<circle cx="436.5" cy="473.5" r="2.5" fill="white"/>
<circle cx="764.5" cy="157.5" r="2.5" fill="white"/>
<circle cx="895.5" cy="451.5" r="2.5" fill="white"/>
<circle cx="1045.5" cy="121.5" r="2.5" fill="white"/>
<circle cx="1177.5" cy="257.5" r="2.5" fill="white"/>
<circle cx="1388.5" cy="45.5" r="2.5" fill="white"/>
<circle cx="1457.5" cy="292.5" r="2.5" fill="white"/>
<circle cx="235.093" cy="45.0898" r="2.5" fill="white"/>
</svg>
