<svg width="1985" height="895" viewBox="0 0 1985 895" fill="none" xmlns="http://www.w3.org/2000/svg">
<path d="M678 370L677.952 370.498L678.107 370.513L678.244 370.436L678 370ZM1043 675L1043.3 674.602L1043.27 674.58L1043.24 674.562L1043 675ZM791 536.5L791.241 536.062L791.233 536.058L791 536.5ZM1253.5 835.528L1253.19 835.926L1253.64 836.267L1253.93 835.782L1253.5 835.528ZM522.953 894.121L522.558 894.428L522.889 894.854L523.289 894.492L522.953 894.121ZM1771 127L1771.37 127.336L1772.05 126.587L1771.04 126.502L1771 127ZM1729 459L1728.78 459.448L1728.79 459.453L1728.8 459.458L1729 459ZM1204 79L1204.04 78.5018L1203.89 78.489L1203.76 78.5617L1204 79ZM431.282 346.676L431.515 346.234H431.515L431.282 346.676ZM144.5 747L144.157 747.364L144.444 747.634L144.773 747.419L144.5 747ZM6 616.5L6.02534 616.001L4.66781 615.932L5.65711 616.864L6 616.5ZM1924.5 545L1924.55 545.497L1926.41 545.293L1924.7 544.542L1924.5 545ZM1390.5 603.5L1390.6 603.989L1391.93 603.711L1390.74 603.061L1390.5 603.5ZM76.2578 413.823L75.7885 413.651L75.6716 413.969L75.9241 414.196L76.2578 413.823ZM180.5 130L180.442 129.503L180.137 129.539L180.031 129.828L180.5 130ZM893.256 249.064L677.756 369.564L678.244 370.436L893.744 249.936L893.256 249.064ZM685.599 747.49L1043.1 675.49L1042.9 674.51L685.401 746.51L685.599 747.49ZM1138.96 231.001L893.463 249.001L893.537 249.999L1139.04 231.999L1138.96 231.001ZM1331.76 345.57L1139.26 231.07L1138.74 231.93L1331.24 346.43L1331.76 345.57ZM429.952 346.498L677.952 370.498L678.048 369.502L430.048 345.502L429.952 346.498ZM790.553 536.276L685.053 746.776L685.947 747.224L791.447 536.724L790.553 536.276ZM1389.57 603.746L1253.07 835.274L1253.93 835.782L1390.43 604.254L1389.57 603.746ZM685.164 746.629L522.618 893.751L523.289 894.492L685.836 747.371L685.164 746.629ZM1331.45 346.497L1549.95 370.497L1550.05 369.503L1331.55 345.503L1331.45 346.497ZM1550.37 370.336L1771.37 127.336L1770.63 126.664L1549.63 369.664L1550.37 370.336ZM1729.22 458.552L1550.22 369.552L1549.78 370.448L1728.78 459.448L1729.22 458.552ZM363.564 108.996L721.065 62.4958L720.935 61.5042L363.436 108.004L363.564 108.996ZM1139.46 231.696L1204.46 79.1961L1203.54 78.8039L1138.54 231.304L1139.46 231.696ZM1203.76 78.5617L893.259 249.062L893.741 249.938L1204.24 79.4383L1203.76 78.5617ZM720.632 62.3385L893.132 249.839L893.868 249.161L721.368 61.6615L720.632 62.3385ZM893.609 249.012L577.109 178.012L576.891 178.988L893.391 249.988L893.609 249.012ZM577.156 178.025L363.656 108.025L363.344 108.975L576.844 178.975L577.156 178.025ZM577.314 178.889L721.314 62.3887L720.686 61.6113L576.686 178.111L577.314 178.889ZM721.49 62.1006L732.99 6.10058L732.01 5.89942L720.51 61.8994L721.49 62.1006ZM790.759 536.938L1042.76 675.438L1043.24 674.562L791.241 536.062L790.759 536.938ZM429.767 346.442L431.048 347.118L431.515 346.234L430.233 345.558L429.767 346.442ZM431.048 347.118L790.767 536.942L791.233 536.058L431.515 346.234L431.048 347.118ZM320.217 632.932L791.1 536.99L790.9 536.01L320.018 631.952L320.217 632.932ZM685.65 746.523L320.267 631.965L319.968 632.919L685.35 747.477L685.65 746.523ZM319.722 632.749L522.558 894.428L523.349 893.815L320.513 632.136L319.722 632.749ZM319.844 632.023L144.227 746.581L144.773 747.419L320.391 632.861L319.844 632.023ZM320.143 631.943L6.02534 616.001L5.97466 616.999L320.092 632.942L320.143 631.943ZM1042.7 675.398L1253.19 835.926L1253.8 835.131L1043.3 674.602L1042.7 675.398ZM1771.04 126.502L1204.04 78.5018L1203.96 79.4982L1770.96 127.498L1771.04 126.502ZM430.376 346.33L577.376 178.83L576.624 178.17L429.624 345.67L430.376 346.33ZM685.304 747.46L949.803 860.46L950.196 859.54L685.696 746.54L685.304 747.46ZM1389.73 604.419L1578.73 727.419L1579.27 726.581L1390.27 603.581L1389.73 604.419ZM1203.68 79.3827L1549.68 370.383L1550.32 369.617L1204.32 78.6173L1203.68 79.3827ZM1390.05 604.497L1924.55 545.497L1924.45 544.503L1389.95 603.503L1390.05 604.497ZM1390.74 603.061L1189.74 493.561L1189.26 494.439L1390.26 603.939L1390.74 603.061ZM1390.4 603.01L1040.9 676.011L1041.1 676.989L1390.6 603.989L1390.4 603.01ZM1390.49 603.889L1331.99 345.889L1331.01 346.111L1389.51 604.111L1390.49 603.889ZM5.65711 616.864L144.157 747.364L144.843 746.636L6.34289 616.136L5.65711 616.864ZM1728.8 459.458C1766.97 476.25 1796.76 489.354 1826.55 502.458C1856.34 515.561 1886.12 528.665 1924.3 545.458L1924.7 544.542C1886.53 527.75 1856.74 514.646 1826.95 501.542C1797.16 488.439 1767.38 475.335 1729.2 458.542L1728.8 459.458ZM320.451 632.07L76.5916 413.451L75.9241 414.196L319.784 632.815L320.451 632.07ZM320.599 632.309L237.589 331.749L236.625 332.015L319.636 632.575L320.599 632.309ZM236.88 331.436L76.0309 413.378L76.4848 414.269L237.334 332.327L236.88 331.436ZM76.7272 413.996L180.969 130.172L180.031 129.828L75.7885 413.651L76.7272 413.996ZM180.019 130.135L236.626 332.017L237.589 331.747L180.981 129.865L180.019 130.135ZM237.071 332.381L429.964 346.499L430.036 345.501L237.144 331.383L237.071 332.381ZM429.533 345.821L319.651 632.263L320.584 632.621L430.467 346.179L429.533 345.821ZM180.173 130.378L429.673 346.378L430.327 345.622L180.827 129.622L180.173 130.378ZM180.558 130.497L363.558 108.997L363.442 108.003L180.442 129.503L180.558 130.497Z" fill="white" fill-opacity="0.24"/>
<circle cx="721.5" cy="62.5" r="2.5" fill="white"/>
<circle cx="577.5" cy="178.5" r="2.5" fill="white"/>
<circle cx="1203.5" cy="79.5" r="2.5" fill="white"/>
<circle cx="430.5" cy="345.5" r="2.5" fill="white"/>
<circle cx="5.5" cy="616.5" r="2.5" fill="white"/>
<circle cx="144.5" cy="746.5" r="2.5" fill="white"/>
<circle cx="363.5" cy="108.5" r="2.5" fill="white"/>
<circle cx="180.5" cy="129.5" r="2.5" fill="white"/>
<circle cx="237.5" cy="331.5" r="2.5" fill="white"/>
<circle cx="685.5" cy="746.5" r="2.5" fill="white"/>
<circle cx="320.533" cy="632.381" r="2.5" fill="white"/>
<circle cx="1549.5" cy="370.5" r="2.5" fill="white"/>
<circle cx="1579.5" cy="727.5" r="2.5" fill="white"/>
<circle cx="1771.5" cy="127.5" r="2.5" fill="white"/>
<circle cx="1729.5" cy="459.5" r="2.5" fill="white"/>
<circle cx="1924.5" cy="545.5" r="2.5" fill="white"/>
<circle cx="1390.5" cy="603.5" r="2.5" fill="white"/>
</svg>
